<?xml version="1.0" standalone="no"?>
<!DOCTYPE svg PUBLIC "-//W3C//DTD SVG 20010904//EN"
 "http://www.w3.org/TR/2001/REC-SVG-20010904/DTD/svg10.dtd">
<svg version="1.0" xmlns="http://www.w3.org/2000/svg"
 width="50.000000pt" height="50.000000pt" viewBox="0 0 50.000000 50.000000"
 preserveAspectRatio="xMidYMid meet">

<g transform="translate(0.000000,50.000000) scale(0.100000,-0.100000)"
fill="#000000" stroke="none">
<path d="M70 251 l0 -221 50 0 50 0 0 80 0 80 34 0 c33 0 37 -4 77 -80 l41
-80 54 0 c30 0 54 3 54 6 0 3 -19 42 -41 85 l-42 80 25 27 c53 56 62 113 28
169 -35 59 -60 68 -202 72 l-128 3 0 -221z m253 185 c45 -19 68 -48 74 -94 6
-45 -16 -95 -50 -113 -12 -6 -23 -13 -25 -14 -2 -2 14 -36 35 -76 21 -41 39
-77 41 -81 2 -5 -11 -8 -30 -8 -31 0 -36 5 -74 78 l-41 77 -52 3 -51 3 0 -80
0 -81 -30 0 -30 0 0 200 0 200 100 0 c63 0 113 -5 133 -14z"/>
<path d="M150 331 l0 -81 70 0 c62 0 74 3 95 25 30 29 33 74 6 106 -16 20 -30
24 -95 27 l-76 4 0 -81z m150 39 c11 -11 20 -31 20 -44 0 -36 -35 -56 -97 -56
l-53 0 0 60 0 60 55 0 c42 0 60 -5 75 -20z"/>
</g>
</svg>
